<svg xmlns="http://www.w3.org/2000/svg" xmlns:xlink="http://www.w3.org/1999/xlink" width="2000" zoomAndPan="magnify" viewBox="0 0 1500 322.499991" height="430" preserveAspectRatio="xMidYMid meet" version="1.0"><defs><g/><clipPath id="b05f214b56"><path d="M 174.71875 46.726562 L 367.171875 46.726562 L 367.171875 275.121094 L 174.71875 275.121094 Z M 174.71875 46.726562 " clip-rule="nonzero"/></clipPath><clipPath id="b280743216"><path d="M 33.511719 46.726562 L 175.042969 46.726562 L 175.042969 275.121094 L 33.511719 275.121094 Z M 33.511719 46.726562 " clip-rule="nonzero"/></clipPath><clipPath id="294cf434f3"><path d="M 175.042969 46.859375 L 224.085938 46.859375 L 224.085938 275.125 L 175.042969 275.125 Z M 175.042969 46.859375 " clip-rule="nonzero"/></clipPath><clipPath id="6f2794a236"><path d="M 316.976562 84.222656 L 344 84.222656 L 344 104 L 316.976562 104 Z M 316.976562 84.222656 " clip-rule="nonzero"/></clipPath><clipPath id="fb2f47d983"><path d="M 514.6875 45.894531 L 554.976562 45.894531 L 554.976562 86.179688 L 514.6875 86.179688 Z M 514.6875 45.894531 " clip-rule="nonzero"/></clipPath><clipPath id="4cf7da2132"><path d="M 534.832031 45.894531 C 523.707031 45.894531 514.6875 54.914062 514.6875 66.039062 C 514.6875 77.164062 523.707031 86.179688 534.832031 86.179688 C 545.957031 86.179688 554.976562 77.164062 554.976562 66.039062 C 554.976562 54.914062 545.957031 45.894531 534.832031 45.894531 Z M 534.832031 45.894531 " clip-rule="nonzero"/></clipPath></defs><g fill="#ffffff" fill-opacity="1"><g transform="translate(375.418936, 202.448851)"><g><path d="M 153.265625 0 L 104.3125 0 L 46.875 -66.140625 L 46.875 0 L 11.34375 0 L 11.34375 -155.90625 L 46.875 -155.90625 L 46.875 -92.21875 L 100.34375 -155.90625 L 143.4375 -155.90625 L 80.703125 -82.015625 Z M 153.265625 0 "/></g></g></g><g fill="#ffffff" fill-opacity="1"><g transform="translate(506.379427, 202.448851)"><g><path d="M 14.546875 -151 C 18.453125 -154.90625 23.113281 -156.859375 28.53125 -156.859375 C 33.945312 -156.859375 38.609375 -154.90625 42.515625 -151 C 46.421875 -147.09375 48.375 -142.429688 48.375 -137.015625 C 48.375 -131.597656 46.421875 -126.9375 42.515625 -123.03125 C 38.609375 -119.125 33.945312 -117.171875 28.53125 -117.171875 C 23.113281 -117.171875 18.453125 -119.125 14.546875 -123.03125 C 10.640625 -126.9375 8.6875 -131.597656 8.6875 -137.015625 C 8.6875 -142.429688 10.640625 -147.09375 14.546875 -151 Z M 11.34375 -96.953125 L 11.34375 0 L 44.796875 0 L 44.796875 -96.953125 Z M 11.34375 -96.953125 "/></g></g></g><g fill="#ffffff" fill-opacity="1"><g transform="translate(545.686296, 202.448851)"><g><path d="M 17.015625 -96.953125 L 17.015625 -133.046875 L 50.453125 -133.046875 L 50.453125 -96.953125 L 70.875 -96.953125 L 70.875 -71.4375 L 50.453125 -71.4375 L 50.453125 -40.625 C 50.453125 -31.6875 52.972656 -27.21875 58.015625 -27.21875 C 59.273438 -27.21875 60.597656 -27.46875 61.984375 -27.96875 C 63.367188 -28.46875 64.441406 -28.972656 65.203125 -29.484375 L 66.328125 -30.234375 L 74.65625 -3.21875 C 67.46875 0.8125 59.273438 2.828125 50.078125 2.828125 C 43.773438 2.828125 38.359375 1.726562 33.828125 -0.46875 C 29.296875 -2.675781 25.863281 -5.640625 23.53125 -9.359375 C 21.195312 -13.078125 19.523438 -16.984375 18.515625 -21.078125 C 17.515625 -25.171875 17.015625 -29.546875 17.015625 -34.203125 L 17.015625 -71.4375 L 3.03125 -71.4375 L 3.03125 -96.953125 Z M 17.015625 -96.953125 "/></g></g></g><g fill="#ffffff" fill-opacity="1"><g transform="translate(602.567971, 202.448851)"><g><path d="M 111.125 -84.84375 C 120.195312 -74.894531 124.734375 -62.738281 124.734375 -48.375 C 124.734375 -34.007812 120.195312 -21.882812 111.125 -12 C 102.050781 -2.113281 90.519531 2.828125 76.53125 2.828125 C 63.6875 2.828125 53.109375 -1.769531 44.796875 -10.96875 L 44.40625 -10.96875 L 44.40625 0 L 11.34375 0 L 11.34375 -162.53125 L 44.796875 -162.53125 L 44.796875 -87.6875 C 53.109375 -95.75 63.6875 -99.78125 76.53125 -99.78125 C 90.519531 -99.78125 102.050781 -94.800781 111.125 -84.84375 Z M 82.96875 -32.03125 C 87.125 -36.25 89.203125 -41.695312 89.203125 -48.375 C 89.203125 -55.050781 87.023438 -60.53125 82.671875 -64.8125 C 78.328125 -69.101562 72.941406 -71.25 66.515625 -71.25 C 60.222656 -71.25 54.898438 -69.101562 50.546875 -64.8125 C 46.203125 -60.53125 44.03125 -55.050781 44.03125 -48.375 C 44.03125 -41.820312 46.140625 -36.40625 50.359375 -32.125 C 54.585938 -27.84375 59.972656 -25.703125 66.515625 -25.703125 C 73.328125 -25.703125 78.8125 -27.8125 82.96875 -32.03125 Z M 82.96875 -32.03125 "/></g></g></g><g fill="#ffffff" fill-opacity="1"><g transform="translate(713.874902, 202.448851)"><g><path d="M 20.5 -11.53125 C 9.726562 -21.101562 4.34375 -33.382812 4.34375 -48.375 C 4.34375 -63.375 9.945312 -75.691406 21.15625 -85.328125 C 32.375 -94.960938 46.238281 -99.78125 62.75 -99.78125 C 79 -99.78125 92.695312 -94.929688 103.84375 -85.234375 C 115 -75.535156 120.578125 -63.25 120.578125 -48.375 C 120.578125 -33.507812 115.125 -21.257812 104.21875 -11.625 C 93.320312 -1.988281 79.5 2.828125 62.75 2.828125 C 45.351562 2.828125 31.269531 -1.957031 20.5 -11.53125 Z M 46.390625 -64.8125 C 42.046875 -60.53125 39.875 -55.050781 39.875 -48.375 C 39.875 -41.695312 41.953125 -36.25 46.109375 -32.03125 C 50.265625 -27.8125 55.742188 -25.703125 62.546875 -25.703125 C 69.097656 -25.703125 74.484375 -27.84375 78.703125 -32.125 C 82.929688 -36.40625 85.046875 -41.820312 85.046875 -48.375 C 85.046875 -55.050781 82.867188 -60.53125 78.515625 -64.8125 C 74.171875 -69.101562 68.847656 -71.25 62.546875 -71.25 C 56.128906 -71.25 50.742188 -69.101562 46.390625 -64.8125 Z M 46.390625 -64.8125 "/></g></g></g><g fill="#ffffff" fill-opacity="1"><g transform="translate(821.024368, 202.448851)"><g><path d="M 123.59375 0 L 83.15625 0 L 61.796875 -27.40625 L 40.4375 0 L 0 0 L 41.390625 -50.640625 L 5.859375 -96.953125 L 44.984375 -96.953125 L 61.796875 -74.453125 L 78.625 -96.953125 L 117.734375 -96.953125 L 82.203125 -50.640625 Z M 123.59375 0 "/></g></g></g><g clip-path="url(#b05f214b56)"><path fill="#ffffff" d="M 367.109375 46.871094 L 316.890625 46.871094 L 316.890625 123.226562 L 367.109375 103.242188 Z M 270.585938 206.992188 L 174.066406 168.59375 L 174.066406 122.683594 L 174.0625 122.683594 L 174.0625 46.871094 L 224.28125 46.871094 L 224.28125 136.246094 L 270.585938 154.664062 L 367.101562 116.277344 L 367.101562 150.773438 L 367.105469 150.761719 L 367.105469 275.125 L 316.890625 275.125 L 316.890625 188.574219 Z M 174.0625 181.609375 L 174.0625 275.125 L 224.28125 275.125 L 224.28125 201.59375 Z M 174.0625 181.609375 " fill-opacity="1" fill-rule="nonzero"/></g><g clip-path="url(#b280743216)"><path fill="#ffffff" d="M 175.042969 46.867188 L -53.210938 46.867188 L -53.210938 275.121094 L 175.042969 275.121094 L 175.042969 184.933594 L 97.171875 262.859375 L 49.238281 262.859375 L 151.078125 160.96875 L 49.238281 59.128906 L 97.171875 59.128906 L 175.042969 137.003906 Z M 175.042969 46.867188 " fill-opacity="1" fill-rule="evenodd"/></g><g clip-path="url(#294cf434f3)"><path fill="#ffffff" d="M 175.042969 275.125 L 175.042969 46.777344 L 224.085938 46.777344 L 224.085938 275.125 Z M 175.042969 275.125 " fill-opacity="1" fill-rule="nonzero"/></g><g clip-path="url(#6f2794a236)"><path fill="#000000" d="M 335.230469 94.394531 C 333.273438 92.652344 332.496094 90.066406 333.132812 87.296875 C 333.160156 88.265625 333.414062 91.164062 336.242188 93.617188 C 336.320312 93.550781 336.398438 93.488281 336.476562 93.425781 C 336.417969 93.488281 336.347656 93.558594 336.269531 93.640625 C 336.296875 93.664062 336.324219 93.6875 336.351562 93.710938 C 338.832031 95.800781 341.886719 96.414062 343.179688 96.609375 C 341.945312 96.695312 339.355469 96.734375 337.007812 95.582031 C 336.398438 95.285156 335.855469 94.929688 335.378906 94.523438 C 325.675781 103.421875 311.710938 105.941406 299.691406 100.972656 C 287.046875 95.742188 278.785156 83.144531 278.953125 69.277344 C 284.3125 86.042969 297.449219 98 312.519531 99.664062 C 323.023438 100.820312 331.425781 96.644531 335.230469 94.394531 " fill-opacity="1" fill-rule="nonzero"/></g><path stroke-linecap="butt" transform="matrix(0, 0.748839, -0.748839, 0, 178.410726, 46.872639)" fill="none" stroke-linejoin="miter" d="M -0.00206313 4.502522 L 304.829209 4.502522 " stroke="#ffffff" stroke-width="9" stroke-opacity="1" stroke-miterlimit="4"/><g fill="#ffffff" fill-opacity="1"><g transform="translate(910.761479, 300.588318)"><g><path d="M 46.859375 -62.546875 L 46.859375 0 L 11.34375 0 L 11.34375 -155.90625 L 46.859375 -155.90625 L 46.859375 -93.734375 L 97.125 -93.734375 L 97.125 -155.90625 L 132.65625 -155.90625 L 132.65625 0 L 97.125 0 L 97.125 -62.546875 Z M 46.859375 -62.546875 "/></g></g></g><g fill="#ffffff" fill-opacity="1"><g transform="translate(1036.995405, 300.588318)"><g><path d="M 109.40625 -43.84375 L 39.109375 -43.84375 C 39.109375 -37.039062 41.3125 -32 45.71875 -28.71875 C 50.132812 -25.445312 54.925781 -23.8125 60.09375 -23.8125 C 65.507812 -23.8125 69.789062 -24.535156 72.9375 -25.984375 C 76.09375 -27.429688 79.6875 -30.296875 83.71875 -34.578125 L 107.90625 -22.484375 C 97.820312 -5.609375 81.066406 2.828125 57.640625 2.828125 C 43.023438 2.828125 30.488281 -2.175781 20.03125 -12.1875 C 9.570312 -22.207031 4.34375 -34.269531 4.34375 -48.375 C 4.34375 -62.488281 9.570312 -74.582031 20.03125 -84.65625 C 30.488281 -94.738281 43.023438 -99.78125 57.640625 -99.78125 C 73.003906 -99.78125 85.503906 -95.335938 95.140625 -86.453125 C 104.785156 -77.566406 109.609375 -64.875 109.609375 -48.375 C 109.609375 -46.101562 109.539062 -44.59375 109.40625 -43.84375 Z M 40.0625 -62.359375 L 76.90625 -62.359375 C 76.15625 -67.398438 74.171875 -71.273438 70.953125 -73.984375 C 67.742188 -76.691406 63.617188 -78.046875 58.578125 -78.046875 C 53.035156 -78.046875 48.625 -76.59375 45.34375 -73.6875 C 42.070312 -70.789062 40.3125 -67.015625 40.0625 -62.359375 Z M 40.0625 -62.359375 "/></g></g></g><g fill="#ffffff" fill-opacity="1"><g transform="translate(1133.182516, 300.588318)"><g><path d="M 17.953125 -12 C 8.878906 -21.882812 4.34375 -34.007812 4.34375 -48.375 C 4.34375 -62.738281 8.878906 -74.894531 17.953125 -84.84375 C 27.023438 -94.800781 38.550781 -99.78125 52.53125 -99.78125 C 65.382812 -99.78125 75.96875 -95.75 84.28125 -87.6875 L 84.28125 -96.9375 L 117.734375 -96.9375 L 117.734375 0 L 84.65625 0 L 84.65625 -10.953125 L 84.28125 -10.953125 C 75.96875 -1.765625 65.382812 2.828125 52.53125 2.828125 C 38.550781 2.828125 27.023438 -2.113281 17.953125 -12 Z M 46.390625 -64.8125 C 42.046875 -60.53125 39.875 -55.050781 39.875 -48.375 C 39.875 -41.695312 41.953125 -36.25 46.109375 -32.03125 C 50.265625 -27.8125 55.742188 -25.703125 62.546875 -25.703125 C 69.097656 -25.703125 74.484375 -27.84375 78.703125 -32.125 C 82.921875 -36.40625 85.03125 -41.820312 85.03125 -48.375 C 85.03125 -55.050781 82.859375 -60.53125 78.515625 -64.8125 C 74.171875 -69.09375 68.847656 -71.234375 62.546875 -71.234375 C 56.117188 -71.234375 50.734375 -69.09375 46.390625 -64.8125 Z M 46.390625 -64.8125 "/></g></g></g><g fill="#ffffff" fill-opacity="1"><g transform="translate(1244.487544, 300.588318)"><g><path d="M 11.34375 0 L 11.34375 -162.515625 L 44.78125 -162.515625 L 44.78125 0 Z M 11.34375 0 "/></g></g></g><g fill="#ffffff" fill-opacity="1"><g transform="translate(1282.848713, 300.588318)"><g><path d="M 17 -96.9375 L 17 -133.03125 L 50.453125 -133.03125 L 50.453125 -96.9375 L 70.859375 -96.9375 L 70.859375 -71.4375 L 50.453125 -71.4375 L 50.453125 -40.625 C 50.453125 -31.6875 52.972656 -27.21875 58.015625 -27.21875 C 59.273438 -27.21875 60.597656 -27.46875 61.984375 -27.96875 C 63.367188 -28.46875 64.4375 -28.972656 65.1875 -29.484375 L 66.328125 -30.234375 L 74.640625 -3.21875 C 67.460938 0.8125 59.273438 2.828125 50.078125 2.828125 C 43.773438 2.828125 38.351562 1.726562 33.8125 -0.46875 C 29.28125 -2.675781 25.847656 -5.632812 23.515625 -9.34375 C 21.191406 -13.0625 19.523438 -16.96875 18.515625 -21.0625 C 17.503906 -25.164062 17 -29.546875 17 -34.203125 L 17 -71.4375 L 3.03125 -71.4375 L 3.03125 -96.9375 Z M 17 -96.9375 "/></g></g></g><g fill="#ffffff" fill-opacity="1"><g transform="translate(1339.729278, 300.588318)"><g><path d="M 11.34375 0 L 11.34375 -162.515625 L 44.78125 -162.515625 L 44.78125 -86.734375 L 45.15625 -86.734375 C 53.851562 -95.429688 63.113281 -99.78125 72.9375 -99.78125 C 77.726562 -99.78125 82.484375 -99.148438 87.203125 -97.890625 C 91.929688 -96.628906 96.46875 -94.675781 100.8125 -92.03125 C 105.15625 -89.382812 108.679688 -85.632812 111.390625 -80.78125 C 114.097656 -75.9375 115.453125 -70.300781 115.453125 -63.875 L 115.453125 0 L 82.015625 0 L 82.015625 -54.796875 C 82.015625 -59.835938 80.40625 -64.25 77.1875 -68.03125 C 73.976562 -71.8125 69.789062 -73.703125 64.625 -73.703125 C 59.582031 -73.703125 55.015625 -71.75 50.921875 -67.84375 C 46.828125 -63.9375 44.78125 -59.585938 44.78125 -54.796875 L 44.78125 0 Z M 11.34375 0 "/></g></g></g><g clip-path="url(#fb2f47d983)"><g clip-path="url(#4cf7da2132)"><path fill="#ffffff" d="M 514.6875 45.894531 L 554.976562 45.894531 L 554.976562 86.179688 L 514.6875 86.179688 Z M 514.6875 45.894531 " fill-opacity="1" fill-rule="nonzero"/></g></g></svg>